<svg xmlns="http://www.w3.org/2000/svg">
    <symbol id="facebook"  viewBox="0 0 9 19" width="9" height="19">
	<style>
		.shp0 { fill: #d12755 } 
	</style>
	<path class="shp0" d="M5.54,9.61h2.46l0.33,-3.07h-2.79l0,-1.54c0,-0.8 0.08,-1.23 1.23,-1.23h1.54v-3.07h-2.46c-2.95,0 -3.99,1.49 -3.99,3.99v1.84h-1.84v3.07h1.84v8.91h3.69z" />
    </symbol>
    
    <symbol id="instagram" width="4576px" height="4480px" viewBox="0 0 4576 4480">
        <path d="M2307.628,234.672c-1105.373,0-2005.02,899.955-2005.02,2005.328c0,1105.987,899.646,2005.328,2005.02,2005.328
		c1106.614,0,2005.65-899.646,2005.65-2005.328C4313.276,1134.627,3413.623,234.672,2307.628,234.672z M3292.639,2844.58
		c0,209.711-170.098,380.43-380.737,380.43H1703.357c-210.01,0-380.74-170.406-380.74-380.43V1636.039
		c0-210.33,170.73-381.05,380.74-381.05h1208.54c210.644,0,380.739,170.72,380.739,381.05l0.002,402.227V2844.58z"/>
	<path d="M2307.628,2587.269c190.988,0,347.591-155.67,347.591-347.27c0-74.92-24.563-145.237-65.714-202.037
		c-62.64-87.202-165.188-144.623-281.878-144.623c-115.45,0-217.376,56.807-281.242,144.623
		c-41.15,56.496-65.106,126.504-65.716,202.037C1960.669,2431.599,2116.649,2587.269,2307.628,2587.269z"/>
	<polygon points="3064.813,1816.274 3064.813,1481.896 3021.221,1481.896 2730.746,1483.435 2731.978,1817.191 	"/>
	<path d="M2846.196,2240.002c0,296.912-241.348,539.176-538.568,539.176s-538.557-242.264-538.557-539.176
		c0-71.234,14.132-139.399,39.302-202.038h-294.157v806.31c0,104.396,84.757,188.831,189.141,188.831h1208.541
		c104.408,0,189.144-84.437,189.144-188.831v-806.311h-294.146C2832.08,2100.601,2846.196,2168.765,2846.196,2240.002z"/>
    </symbol>
    
    <symbol id="twitter" viewBox="0 0 19 16" width="19" height="16">
        <style>
		.shp0 { fill: #d12755 } 
	</style>
	<path id="twitter" class="shp0" d="M18.35,2.48c-0.66,0.29 -1.36,0.48 -2.1,0.56c0.75,-0.44 1.33,-1.15 1.61,-1.98c-0.71,0.41 -1.49,0.71 -2.32,0.87c-0.67,-0.7 -1.62,-1.13 -2.67,-1.13c-2.02,0 -3.65,1.6 -3.65,3.58c0,0.28 0.03,0.55 0.09,0.82c-3.04,-0.15 -5.73,-1.58 -7.53,-3.75c-0.31,0.53 -0.49,1.14 -0.49,1.8c0,1.24 0.64,2.34 1.63,2.98c-0.6,-0.02 -1.16,-0.18 -1.65,-0.45c0,0.01 0,0.03 0,0.04c0,1.74 1.26,3.19 2.93,3.51c-0.31,0.08 -0.63,0.13 -0.96,0.13c-0.24,0 -0.46,-0.02 -0.69,-0.06c0.46,1.42 1.81,2.46 3.41,2.49c-1.25,0.96 -2.83,1.53 -4.54,1.53c-0.29,0 -0.59,-0.02 -0.87,-0.05c1.62,1.02 3.54,1.61 5.6,1.61c6.72,0 10.4,-5.46 10.4,-10.2c0,-0.15 0,-0.31 -0.01,-0.46c0.71,-0.51 1.33,-1.14 1.82,-1.86z" />
    </symbol>
    
    <symbol>
    
    </symbol>
</svg>